<svg width="40" height="38" viewBox="0 0 40 38" fill="none" xmlns="http://www.w3.org/2000/svg">
<g filter="url(#filter0_d_12_193)">
<circle cx="10.5" cy="13" r="10.5" fill="url(#paint0_linear_12_193)"/>
<g filter="url(#filter1_b_12_193)">
<path fill-rule="evenodd" clip-rule="evenodd" d="M22.5001 27.25C26.6422 27.25 30 23.8921 30 19.75C30 15.6078 26.6422 12.25 22.5 12.25C21.7742 12.25 21.0725 12.3531 20.4087 12.5454C19.1591 10.1418 16.6463 8.50003 13.75 8.50003C9.60783 8.50003 6.24997 11.8579 6.24997 16L6.25005 16.0343C6.04482 16.0116 5.83627 16 5.625 16C2.5184 16 0 18.5184 0 21.625C0 24.5203 2.18756 26.9048 5.00005 27.2157V27.25H22.5001V27.25Z" fill="url(#paint1_linear_12_193)" fill-opacity="0.6"/>
</g>
</g>
<defs>
<filter id="filter0_d_12_193" x="0" y="0" width="40" height="40" filterUnits="userSpaceOnUse" color-interpolation-filters="sRGB">
<feFlood flood-opacity="0" result="BackgroundImageFix"/>
<feColorMatrix in="SourceAlpha" type="matrix" values="0 0 0 0 0 0 0 0 0 0 0 0 0 0 0 0 0 0 127 0" result="hardAlpha"/>
<feOffset dx="5" dy="5"/>
<feGaussianBlur stdDeviation="2.5"/>
<feColorMatrix type="matrix" values="0 0 0 0 0 0 0 0 0 0 0 0 0 0 0 0 0 0 0.25 0"/>
<feBlend mode="normal" in2="BackgroundImageFix" result="effect1_dropShadow_12_193"/>
<feBlend mode="normal" in="SourceGraphic" in2="effect1_dropShadow_12_193" result="shape"/>
</filter>
<filter id="filter1_b_12_193" x="-10" y="-1.49997" width="50" height="38.75" filterUnits="userSpaceOnUse" color-interpolation-filters="sRGB">
<feFlood flood-opacity="0" result="BackgroundImageFix"/>
<feGaussianBlur in="BackgroundImage" stdDeviation="5"/>
<feComposite in2="SourceAlpha" operator="in" result="effect1_backgroundBlur_12_193"/>
<feBlend mode="normal" in="SourceGraphic" in2="effect1_backgroundBlur_12_193" result="shape"/>
</filter>
<linearGradient id="paint0_linear_12_193" x1="0" y1="2.5" x2="9.75" y2="12.25" gradientUnits="userSpaceOnUse">
<stop stop-color="#FAE26F"/>
<stop offset="1" stop-color="#F7BC3D"/>
</linearGradient>
<linearGradient id="paint1_linear_12_193" x1="7.55208" y1="20" x2="16.1903" y2="30.7978" gradientUnits="userSpaceOnUse">
<stop stop-color="white"/>
<stop offset="1" stop-color="#BDE0F5"/>
</linearGradient>
</defs>
</svg>
