<svg width="30" height="30" viewBox="0 0 30 30" fill="none" xmlns="http://www.w3.org/2000/svg">
<path fill-rule="evenodd" clip-rule="evenodd" d="M27 17C27.5523 17 28 16.5523 28 16C28 15.4477 27.5523 15 27 15C26.4477 15 26 15.4477 26 16C26 16.5523 26.4477 17 27 17ZM16 22C16.5523 22 17 21.5523 17 21C17 20.4477 16.5523 20 16 20C15.4477 20 15 20.4477 15 21C15 21.5523 15.4477 22 16 22ZM12 29C12.5523 29 13 28.5523 13 28C13 27.4477 12.5523 27 12 27C11.4477 27 11 27.4477 11 28C11 28.5523 11.4477 29 12 29ZM26 24C26 24.5523 25.5523 25 25 25C24.4477 25 24 24.5523 24 24C24 23.4477 24.4477 23 25 23C25.5523 23 26 23.4477 26 24Z" fill="url(#paint0_linear_123_107)"/>
<path d="M10 26.5L1 18M14 19.5L2 8.5M23.5 22.5L14.5 14.5M25.5 14.5L11.5 2" stroke="url(#paint1_linear_123_107)" stroke-linecap="round" stroke-linejoin="round"/>
<defs>
<linearGradient id="paint0_linear_123_107" x1="15.2795" y1="23.5867" x2="21.8815" y2="29.8497" gradientUnits="userSpaceOnUse">
<stop stop-color="white"/>
<stop offset="1" stop-color="#BDE0F5"/>
</linearGradient>
<linearGradient id="paint1_linear_123_107" x1="7.16754" y1="17.0267" x2="18.3932" y2="25.7967" gradientUnits="userSpaceOnUse">
<stop stop-color="white"/>
<stop offset="1" stop-color="#BDE0F5"/>
</linearGradient>
</defs>
</svg>
