<svg width="40" height="33" viewBox="0 0 40 33" fill="none" xmlns="http://www.w3.org/2000/svg">
<g filter="url(#filter0_d_12_202)">
<g filter="url(#filter1_b_12_202)">
<path fill-rule="evenodd" clip-rule="evenodd" d="M22.4999 18.75C22.5 18.75 22.5 18.75 22.5 18.75C26.6421 18.75 30 15.3921 30 11.25C30 7.10783 26.6421 3.74996 22.5 3.74996C21.7742 3.74996 21.0725 3.85306 20.4087 4.04541C19.1591 1.64177 16.6462 3.33323e-05 13.7499 3.33323e-05C9.60781 3.33323e-05 6.24994 3.3579 6.24994 7.50003L6.25002 7.5343C6.0448 7.51162 5.83626 7.49997 5.625 7.49997C2.5184 7.49997 0 10.0184 0 13.125C0 16.0203 2.1875 18.4047 4.99993 18.7156V18.75H22.4999V18.75Z" fill="url(#paint0_linear_12_202)" fill-opacity="0.6"/>
</g>
<g filter="url(#filter2_b_12_202)">
<path d="M12.9541 18.8937L15.2913 14.5631L17.6284 18.8937C17.994 19.571 18.0477 20.3736 17.7757 21.0936C16.9107 23.3832 13.6719 23.3832 12.8069 21.0936C12.5349 20.3736 12.5886 19.571 12.9541 18.8937Z" fill="url(#paint1_linear_12_202)" fill-opacity="0.7"/>
</g>
</g>
<defs>
<filter id="filter0_d_12_202" x="0" y="0" width="40" height="40" filterUnits="userSpaceOnUse" color-interpolation-filters="sRGB">
<feFlood flood-opacity="0" result="BackgroundImageFix"/>
<feColorMatrix in="SourceAlpha" type="matrix" values="0 0 0 0 0 0 0 0 0 0 0 0 0 0 0 0 0 0 127 0" result="hardAlpha"/>
<feOffset dx="5" dy="5"/>
<feGaussianBlur stdDeviation="2.5"/>
<feColorMatrix type="matrix" values="0 0 0 0 0 0 0 0 0 0 0 0 0 0 0 0 0 0 0.25 0"/>
<feBlend mode="normal" in2="BackgroundImageFix" result="effect1_dropShadow_12_202"/>
<feBlend mode="normal" in="SourceGraphic" in2="effect1_dropShadow_12_202" result="shape"/>
</filter>
<filter id="filter1_b_12_202" x="-10" y="-9.99997" width="50" height="38.75" filterUnits="userSpaceOnUse" color-interpolation-filters="sRGB">
<feFlood flood-opacity="0" result="BackgroundImageFix"/>
<feGaussianBlur in="BackgroundImage" stdDeviation="5"/>
<feComposite in2="SourceAlpha" operator="in" result="effect1_backgroundBlur_12_202"/>
<feBlend mode="normal" in="SourceGraphic" in2="effect1_backgroundBlur_12_202" result="shape"/>
</filter>
<filter id="filter2_b_12_202" x="5.35394" y="7.28156" width="19.8746" height="22.8108" filterUnits="userSpaceOnUse" color-interpolation-filters="sRGB">
<feFlood flood-opacity="0" result="BackgroundImageFix"/>
<feGaussianBlur in="BackgroundImage" stdDeviation="3.64078"/>
<feComposite in2="SourceAlpha" operator="in" result="effect1_backgroundBlur_12_202"/>
<feBlend mode="normal" in="SourceGraphic" in2="effect1_backgroundBlur_12_202" result="shape"/>
</filter>
<linearGradient id="paint0_linear_12_202" x1="7.55208" y1="11.5" x2="16.1903" y2="22.2978" gradientUnits="userSpaceOnUse">
<stop stop-color="white"/>
<stop offset="1" stop-color="#BDE0F5"/>
</linearGradient>
<linearGradient id="paint1_linear_12_202" x1="12.3787" y1="14.5631" x2="16.4409" y2="22.5353" gradientUnits="userSpaceOnUse">
<stop stop-color="#94CCFD"/>
<stop offset="1" stop-color="#4EA8F4"/>
</linearGradient>
</defs>
</svg>
