<svg width="30" height="30" viewBox="0 0 30 30" fill="none" xmlns="http://www.w3.org/2000/svg">
<g filter="url(#filter0_b_12_223)">
<path fill-rule="evenodd" clip-rule="evenodd" d="M22.5 19.028V19.028H5V18.9931C2.18753 18.6776 0 16.2578 0 13.3195C0 10.1669 2.5184 7.61114 5.625 7.61114C5.83627 7.61114 6.04482 7.62296 6.25005 7.64599L6.24997 7.61121C6.24997 3.40765 9.60783 0 13.75 0C16.6463 0 19.1591 1.66608 20.4087 4.10536C21.0725 3.91017 21.7742 3.80554 22.5 3.80554C26.6421 3.80554 30 7.2132 30 11.4167C30 15.6203 26.6421 19.028 22.5 19.028Z" fill="url(#paint0_linear_12_223)" fill-opacity="0.6"/>
</g>
<path d="M7 14V18M7 22V18M7 18H11M7 18H3M7 18L4 15M7 18L10 21M7 18L4 21M7 18L10 15" stroke="url(#paint1_linear_12_223)" stroke-linecap="round" stroke-linejoin="round"/>
<path d="M21 10V14M21 18V14M21 14H25M21 14H17M21 14L18 11M21 14L24 17M21 14L18 17M21 14L24 11" stroke="url(#paint2_linear_12_223)" stroke-linecap="round" stroke-linejoin="round"/>
<path d="M24 21V25M24 29V25M24 25H28M24 25H20M24 25L21 22M24 25L27 28M24 25L21 28M24 25L27 22" stroke="url(#paint3_linear_12_223)" stroke-linecap="round" stroke-linejoin="round"/>
<defs>
<filter id="filter0_b_12_223" x="-10" y="-10" width="50" height="39.028" filterUnits="userSpaceOnUse" color-interpolation-filters="sRGB">
<feFlood flood-opacity="0" result="BackgroundImageFix"/>
<feGaussianBlur in="BackgroundImage" stdDeviation="5"/>
<feComposite in2="SourceAlpha" operator="in" result="effect1_backgroundBlur_12_223"/>
<feBlend mode="normal" in="SourceGraphic" in2="effect1_backgroundBlur_12_223" result="shape"/>
</filter>
<linearGradient id="paint0_linear_12_223" x1="7.55208" y1="11.6705" x2="16.3458" y2="22.5021" gradientUnits="userSpaceOnUse">
<stop stop-color="white"/>
<stop offset="1" stop-color="#BDE0F5"/>
</linearGradient>
<linearGradient id="paint1_linear_12_223" x1="7" y1="14" x2="7" y2="22" gradientUnits="userSpaceOnUse">
<stop stop-color="#94CCFD"/>
<stop offset="1" stop-color="#4EA8F4"/>
</linearGradient>
<linearGradient id="paint2_linear_12_223" x1="21" y1="10" x2="21" y2="18" gradientUnits="userSpaceOnUse">
<stop stop-color="#94CCFD"/>
<stop offset="1" stop-color="#4EA8F4"/>
</linearGradient>
<linearGradient id="paint3_linear_12_223" x1="24" y1="21" x2="24" y2="29" gradientUnits="userSpaceOnUse">
<stop stop-color="#94CCFD"/>
<stop offset="1" stop-color="#4EA8F4"/>
</linearGradient>
</defs>
</svg>
