<svg width="40" height="39" viewBox="0 0 40 39" fill="none" xmlns="http://www.w3.org/2000/svg">
<g filter="url(#filter0_d_12_967)">
<circle cx="14" cy="14" r="13" fill="url(#paint0_linear_12_967)"/>
<path fill-rule="evenodd" clip-rule="evenodd" d="M22.5 28.9999V29H5V28.9651C2.18753 28.6496 0 26.2298 0 23.2915C0 20.1389 2.5184 17.5831 5.625 17.5831C5.83627 17.5831 6.04482 17.5949 6.25005 17.618L6.24997 17.5832C6.24997 13.3796 9.60783 9.97198 13.75 9.97198C16.6463 9.97198 19.1591 11.6381 20.4087 14.0773C21.0725 13.8822 21.7742 13.7775 22.5 13.7775C26.6421 13.7775 30 17.1852 30 21.3887C30 25.5923 26.6421 28.9999 22.5 28.9999Z" fill="url(#paint1_linear_12_967)"/>
</g>
<defs>
<filter id="filter0_d_12_967" x="0" y="0" width="40" height="40" filterUnits="userSpaceOnUse" color-interpolation-filters="sRGB">
<feFlood flood-opacity="0" result="BackgroundImageFix"/>
<feColorMatrix in="SourceAlpha" type="matrix" values="0 0 0 0 0 0 0 0 0 0 0 0 0 0 0 0 0 0 127 0" result="hardAlpha"/>
<feOffset dx="5" dy="5"/>
<feGaussianBlur stdDeviation="2.5"/>
<feColorMatrix type="matrix" values="0 0 0 0 0 0 0 0 0 0 0 0 0 0 0 0 0 0 0.25 0"/>
<feBlend mode="normal" in2="BackgroundImageFix" result="effect1_dropShadow_12_967"/>
<feBlend mode="normal" in="SourceGraphic" in2="effect1_dropShadow_12_967" result="shape"/>
</filter>
<linearGradient id="paint0_linear_12_967" x1="1" y1="1" x2="13.0714" y2="13.0714" gradientUnits="userSpaceOnUse">
<stop stop-color="#FAE26F"/>
<stop offset="1" stop-color="#F7BC3D"/>
</linearGradient>
<linearGradient id="paint1_linear_12_967" x1="7.55208" y1="21.6425" x2="16.3458" y2="32.4741" gradientUnits="userSpaceOnUse">
<stop stop-color="white"/>
<stop offset="1" stop-color="#BDE0F5"/>
</linearGradient>
</defs>
</svg>
