<svg width="30" height="30" viewBox="0 0 30 30" fill="none" xmlns="http://www.w3.org/2000/svg">
<path fill-rule="evenodd" clip-rule="evenodd" d="M22.5 19.028V19.028H5V18.9931C2.18753 18.6776 0 16.2578 0 13.3195C0 10.1669 2.5184 7.61114 5.625 7.61114C5.83627 7.61114 6.04482 7.62296 6.25005 7.64599L6.24997 7.61121C6.24997 3.40765 9.60783 0 13.75 0C16.6463 0 19.1591 1.66608 20.4087 4.10536C21.0725 3.91017 21.7742 3.80554 22.5 3.80554C26.6421 3.80554 30 7.2132 30 11.4167C30 15.6203 26.6421 19.028 22.5 19.028Z" fill="url(#paint0_linear_12_965)"/>
<path d="M15 16V20M15 24V20M15 20H19M15 20H11M15 20L12 17M15 20L18 23M15 20L12 23M15 20L18 17" stroke="url(#paint1_linear_12_965)" stroke-linecap="round" stroke-linejoin="round"/>
<defs>
<linearGradient id="paint0_linear_12_965" x1="7.55208" y1="11.6705" x2="16.3458" y2="22.5021" gradientUnits="userSpaceOnUse">
<stop stop-color="white"/>
<stop offset="1" stop-color="#BDE0F5"/>
</linearGradient>
<linearGradient id="paint1_linear_12_965" x1="15" y1="16" x2="15" y2="24" gradientUnits="userSpaceOnUse">
<stop stop-color="#94CCFD"/>
<stop offset="1" stop-color="#4EA8F4"/>
</linearGradient>
</defs>
</svg>
